<svg xmlns="http://www.w3.org/2000/svg" width="106.25" height="32.452" viewBox="0 0 106.25 32.452">
  <g id="Group_119" data-name="Group 119" transform="translate(-37.922 -33.819)">
    <g id="Group_117" data-name="Group 117" transform="translate(38.172 34.069)">
      <path id="Path_3" data-name="Path 3" d="M374.106,50.785a6.169,6.169,0,0,1-2.015,1.378,8.3,8.3,0,0,1-6.713.283,4.944,4.944,0,0,1-3.223-4.775,55.224,55.224,0,0,1,.106-5.937,4.173,4.173,0,0,1,4.022-3.863,29.07,29.07,0,0,1,3.211.023,4.454,4.454,0,0,1,3.807,3.171,14.511,14.511,0,0,1,.392,4.625c-.01.248-.01.5-.014.746-.006.375-.111.478-.478.49-2.494.083-4.99.059-7.485.061-.42,0-.473.056-.461.489a2.491,2.491,0,0,0,1.951,2.37,5.509,5.509,0,0,0,4.367-.687c.226-.127.436-.281.656-.418a.4.4,0,0,1,.637.12c.415.557.826,1.116,1.239,1.674Zm-6.155-6.324c.759,0,1.518,0,2.278,0,.349,0,.466-.135.435-.484-.051-.557-.1-1.115-.163-1.671a1.534,1.534,0,0,0-1.466-1.354q-1.138-.02-2.277,0a1.452,1.452,0,0,0-1.428,1.33c.013.558-.063,1.117-.093,1.676-.022.416.056.5.469.5.749,0,1.5,0,2.246,0" transform="translate(-268.106 -27.998)"/>
      <path id="Path_4" data-name="Path 4" d="M210.729,45.733c0-2.252.008-4.5-.009-6.755a.446.446,0,0,1,.425-.521,18.666,18.666,0,0,1,3.283-.319,10.479,10.479,0,0,1,3.124.252,9.96,9.96,0,0,1,1.357.538.54.54,0,0,0,.56-.022,6.515,6.515,0,0,1,4.053-.792,7.173,7.173,0,0,1,2.522.5,3.941,3.941,0,0,1,2.4,3.31,9.555,9.555,0,0,1,.089,1.458q0,4.592,0,9.183c0,.491-.095.588-.577.589h-1.872c-.474,0-.574-.1-.574-.589q0-4.716,0-9.433a3.628,3.628,0,0,0-.111-.986,1.093,1.093,0,0,0-.85-.82,8.9,8.9,0,0,0-2.449-.137c-.942.041-.949.04-.949.981v10.4c0,.49-.094.586-.576.587q-.951,0-1.9,0c-.429,0-.535-.107-.536-.53q-.009-4.685-.017-9.369A3.706,3.706,0,0,0,218,42.207c-.215-.73-.808-.919-1.466-1a14.774,14.774,0,0,0-2.335.007c-.309.011-.424.187-.424.565q0,4.95,0,9.9c0,.332,0,.664,0,1s-.138.475-.472.477q-1.045.007-2.091,0a.418.418,0,0,1-.481-.447c-.014-.186,0-.373,0-.56Z" transform="translate(-156.02 -28.188)"/>
      <path id="Path_5" data-name="Path 5" d="M291.236,56.058c0,.82,0,1.64,0,2.459,0,.459-.094.552-.541.553-.676,0-1.352,0-2.028,0-.352,0-.47-.113-.47-.464q0-7.238.008-14.476,0-2.382,0-4.763c0-.537.059-.625.577-.81a8.993,8.993,0,0,1,2.608-.4,24,24,0,0,1,3.239-.03,5.1,5.1,0,0,1,4.806,4.234,5.337,5.337,0,0,1,.121,1.141c-.006,1.338-.04,2.679.005,4.016A5.237,5.237,0,0,1,295.35,52.9a10.979,10.979,0,0,1-3.346.192c-.768-.038-.769-.03-.769.724Zm0-10.48q0,1.929,0,3.858c0,.464.121.581.591.6.187.006.374.011.56.024a6.72,6.72,0,0,0,2.318-.151,2.021,2.021,0,0,0,1.664-1.788c.03-1.6.04-3.194,0-4.79a2.063,2.063,0,0,0-1.952-2.092c-.857-.1-1.723-.022-2.585-.034-.473-.007-.595.116-.6.581q0,1.9,0,3.8" transform="translate(-213.375 -28.179)"/>
      <path id="Path_6" data-name="Path 6" d="M145.4,38.034a9.879,9.879,0,0,1,3.762.62.622.622,0,0,1,.47.672c-.017.6-.017,1.2-.029,1.8a.467.467,0,0,1-.611.5c-1.28-.215-2.563-.411-3.858-.516a3.678,3.678,0,0,0-1.743.227,1.133,1.133,0,0,0-.782.96,1.147,1.147,0,0,0,.612,1.139,6.376,6.376,0,0,0,2.117.7,11.726,11.726,0,0,1,2.559.759,3.763,3.763,0,0,1,2.287,4c-.181,2.148-1.5,3.32-3.382,4.026a8.063,8.063,0,0,1-3.19.428,28.352,28.352,0,0,1-3.567-.3c-.481-.081-.592-.21-.6-.7q-.007-.9-.017-1.8c-.007-.542.205-.705.753-.655a26.46,26.46,0,0,0,4.724.171,3.436,3.436,0,0,0,1.276-.377,1.138,1.138,0,0,0,.69-1.059,1.067,1.067,0,0,0-.72-1,7.758,7.758,0,0,0-1.86-.491,9.611,9.611,0,0,1-2.757-.941,4.3,4.3,0,0,1-1.446-6.207,5.006,5.006,0,0,1,2.962-1.758,9.006,9.006,0,0,1,2.346-.193" transform="translate(-103.158 -28.139)"/>
      <path id="Path_7" data-name="Path 7" d="M341.285,31.324c0-3.081,0-6.161-.006-9.241,0-.257.062-.332.323-.326q1.216.026,2.432,0c.248,0,.305.066.3.308q-.01,8.245-.005,16.491c0,.664,0,1.328,0,1.991,0,.394-.125.516-.523.518-.644,0-1.289,0-1.934,0-.466,0-.573-.1-.573-.563q0-4.589,0-9.178Z" transform="translate(-252.686 -16.099)"/>
      <path id="Path_8" data-name="Path 8" d="M189.091,47.336c0-2.272,0-4.544-.006-6.816,0-.247.041-.338.314-.33.8.021,1.6.017,2.4,0,.234,0,.292.057.291.29q-.013,4.435-.005,8.87c0,1.6.007,3.195.009,4.793,0,.46-.1.56-.57.561q-.951,0-1.9,0c-.443,0-.542-.1-.542-.553q0-3.408,0-6.815Z" transform="translate(-139.985 -29.738)"/>
      <path id="Path_9" data-name="Path 9" d="M189.073,24.17c0-.435,0-.871,0-1.306,0-.161.025-.244.217-.242.862.009,1.725.007,2.587,0,.158,0,.218.045.217.21q-.009,1.353,0,2.706c0,.152-.057.195-.2.194-.873,0-1.745-.006-2.618,0-.178,0-.2-.08-.2-.227.006-.446,0-.892,0-1.337" transform="translate(-139.977 -16.739)"/>
      <path id="Path_12" data-name="Path 12" d="M28.316,31.952H3.815A3.82,3.82,0,0,1,0,28.137V3.815A3.82,3.82,0,0,1,3.815,0h24.5a3.82,3.82,0,0,1,3.816,3.815V28.137a3.82,3.82,0,0,1-3.816,3.815M3.815.259A3.56,3.56,0,0,0,.259,3.815V28.137a3.56,3.56,0,0,0,3.556,3.556h24.5a3.561,3.561,0,0,0,3.557-3.556V3.815A3.561,3.561,0,0,0,28.316.259Z" transform="translate(0)" stroke="#000" stroke-width="0.5"/>
    </g>
    <g id="Group_116" data-name="Group 116" transform="translate(42 35.222)">
      <g id="Group_118" data-name="Group 118" transform="translate(0.174 6.32)">
        <path id="Path_10" data-name="Path 10" d="M70.325,47.26c0,2.065-.005,4.13.005,6.195a.683.683,0,0,1-.465.713A13.976,13.976,0,0,1,64.3,55.359a7.409,7.409,0,0,1-3.394-.668,4.79,4.79,0,0,1-2.615-3.612,9.474,9.474,0,0,1-.179-1.885c0-2.719,0-5.437-.006-8.156,0-.255.06-.335.324-.329.832.017,1.664.016,2.5,0,.243,0,.313.06.312.308q-.014,4.155,0,8.312a5.32,5.32,0,0,0,.2,1.536,2.027,2.027,0,0,0,1.914,1.478,11.641,11.641,0,0,0,3.527-.251c.237-.047.277-.169.276-.386-.006-3.549,0-7.1-.012-10.647,0-.294.085-.357.362-.351q1.247.027,2.5,0c.258,0,.331.062.329.325-.011,2.075-.006,4.151-.006,6.226" transform="translate(-46.999 -37.595)"/>
        <path id="Path_11" data-name="Path 11" d="M19.978,38.078c.025.782-.042,1.746.024,2.709a3.933,3.933,0,0,0,.1.644,2.182,2.182,0,0,0,2.088,1.815,6.747,6.747,0,0,0,1.893-.058.339.339,0,0,1,.439.273,7.557,7.557,0,0,0,.776,1.791c.162.253.07.449-.267.605a3.853,3.853,0,0,1-1.166.324,7.9,7.9,0,0,1-3.955-.368,4.65,4.65,0,0,1-2.9-3.729,10.433,10.433,0,0,1-.182-2.01c0-1.691,0-3.383.006-5.074,0-.224-.041-.316-.286-.3-.289.024-.583-.006-.873.009-.206.011-.291-.034-.287-.266.015-.809.011-1.619,0-2.428,0-.185.043-.261.241-.251.3.015.6-.01.9.009.228.015.3-.048.3-.288-.016-.819,0-1.64-.012-2.459,0-.235.062-.3.3-.294.852.014,1.706.017,2.558,0,.267-.006.3.1.3.323-.011.809,0,1.619-.01,2.428,0,.238.07.3.3.293,1.113-.011,2.226,0,3.338-.011.264,0,.328.076.322.33-.017.747-.02,1.494,0,2.241.008.29-.051.387-.366.38-1.1-.022-2.2,0-3.307-.015-.242,0-.292.071-.289.3.012.965.005,1.93.005,3.076" transform="translate(-15.391 -28.735)"/>
      </g>
      <rect id="Rectangle_7" data-name="Rectangle 7" width="98.343" height="29.647" fill="none"/>
    </g>
  </g>
</svg>
